<?xml version="1.0" standalone="no"?>
<!DOCTYPE svg PUBLIC "-//W3C//DTD SVG 20010904//EN"
 "http://www.w3.org/TR/2001/REC-SVG-20010904/DTD/svg10.dtd">
<svg version="1.0" xmlns="http://www.w3.org/2000/svg"
 width="70.000000pt" height="70.000000pt" viewBox="0 0 70.000000 70.000000"
 preserveAspectRatio="xMidYMid meet">
<metadata>
Created by potrace 1.11, written by Peter Selinger 2001-2013
</metadata>
<g transform="translate(0.000000,70.000000) scale(0.100000,-0.100000)"
fill="#000000" stroke="none">
<path d="M42 571 c0 -47 -1 -121 -2 -163 -1 -43 1 -82 5 -88 3 -6 9 -23 11
-37 3 -15 10 -30 15 -34 6 -3 10 -8 8 -10 -5 -9 13 -49 22 -49 5 0 9 -4 9 -9
0 -6 14 -25 30 -43 17 -18 30 -28 30 -23 0 5 7 0 16 -11 8 -10 13 -12 9 -4 -5
11 -3 11 7 -1 13 -16 81 -50 96 -48 4 1 9 0 12 -1 3 -1 80 -4 173 -6 l167 -3
1 52 c4 171 1 307 -7 319 -5 7 -9 22 -9 33 0 16 6 20 33 18 l32 -2 0 98 0 98
-329 0 -328 -1 -1 -85z"/>
</g>
</svg>
